<?xml version="1.0" encoding="utf-8"?>
<!-- Generator: Adobe Illustrator 21.0.0, SVG Export Plug-In . SVG Version: 6.00 Build 0)  -->
<svg version="1.1" id="Layer_1" xmlns="http://www.w3.org/2000/svg" xmlns:xlink="http://www.w3.org/1999/xlink" x="0px" y="0px"
	 viewBox="0 0 389.2 24.1" style="enable-background:new 0 0 389.2 24.1;" xml:space="preserve">
<style type="text/css">
	.st0{fill:#FFFFFF;}
</style>
<g>
	<path class="st0" d="M19.5,7.9c0,1.2-0.2,2.2-0.7,3s-1.1,1.5-2,2.1c-0.9,0.5-1.9,0.9-3,1.2s-2.4,0.4-3.8,0.4H8.2v5.8
		c0,0.4,0.1,0.7,0.2,0.9s0.4,0.5,0.8,0.6c0.2,0.1,0.5,0.2,1,0.2s0.8,0.1,1.1,0.2v1.1H0v-1.1c0.3,0,0.7-0.1,1.1-0.1s0.8-0.1,1-0.2
		c0.4-0.2,0.6-0.3,0.8-0.6S3,20.9,3,20.5V5.9C3,5.5,3,5.2,2.9,5S2.5,4.5,2.1,4.3C1.8,4.2,1.5,4.1,1,4S0.2,3.9,0,3.8V2.7h11.5
		c2.7,0,4.7,0.4,6,1.3S19.5,6.1,19.5,7.9z M13.8,8.7c0-1.6-0.3-2.7-0.9-3.5S11.1,4,9.5,4H8.2v9.1h0.6c1.6,0,2.8-0.4,3.7-1.1
		S13.8,10.2,13.8,8.7z"/>
	<path class="st0" d="M39.7,23.5h-9.4v-1c0.4,0,1-0.1,1.5-0.2c0.6-0.1,0.9-0.3,0.9-0.5c0-0.1,0-0.1,0-0.2c0-0.1,0-0.2-0.1-0.3
		l-1.5-3.6h-6c-0.1,0.3-0.3,0.7-0.5,1.2c-0.2,0.4-0.3,0.8-0.4,1.2c-0.2,0.5-0.2,0.8-0.3,1c0,0.2,0,0.3,0,0.4c0,0.3,0.2,0.5,0.6,0.7
		c0.4,0.2,1.1,0.3,2,0.4v1h-7.1v-1c0.3,0,0.6-0.1,0.9-0.1c0.3-0.1,0.6-0.2,0.8-0.3c0.3-0.2,0.6-0.4,0.8-0.7c0.2-0.3,0.4-0.6,0.6-1
		c0.9-2.3,1.9-4.6,2.8-6.9c0.9-2.3,2-4.8,3.1-7.6h2.4c1.6,3.9,2.8,7,3.7,9.3c0.9,2.3,1.7,4.2,2.3,5.7c0.1,0.2,0.2,0.5,0.4,0.7
		c0.2,0.2,0.4,0.4,0.7,0.6c0.2,0.1,0.5,0.2,0.8,0.3c0.3,0.1,0.6,0.1,0.8,0.1V23.5z M30.6,16.5l-2.5-6.3l-2.5,6.3H30.6z"/>
	<path class="st0" d="M59.7,7.1c-0.2,0-0.6,0.1-1,0.1c-0.4,0.1-0.8,0.2-1.1,0.5C57.3,8,57.1,8.3,57,8.9c-0.1,0.5-0.2,1.3-0.2,2.3
		v12.4h-2.2L43.8,10.2v8.1c0,1,0.1,1.8,0.2,2.3c0.1,0.5,0.4,0.9,0.7,1.2c0.2,0.2,0.6,0.3,1,0.5c0.5,0.1,0.9,0.2,1.1,0.3v1h-7.4v-1
		c0.3,0,0.7-0.1,1.1-0.2c0.4-0.1,0.8-0.2,1-0.4c0.3-0.2,0.5-0.6,0.7-1.1c0.1-0.5,0.2-1.3,0.2-2.4v-8.2c0-0.4-0.1-0.8-0.2-1.2
		c-0.1-0.4-0.3-0.7-0.6-0.9c-0.3-0.3-0.6-0.5-1-0.7c-0.4-0.2-0.8-0.3-1.3-0.4v-1h6.5l9.5,11.7v-6.6c0-1-0.1-1.8-0.2-2.3
		c-0.1-0.5-0.4-0.9-0.7-1.1c-0.2-0.2-0.6-0.3-1-0.5c-0.5-0.1-0.8-0.2-1.1-0.3v-1h7.4V7.1z"/>
	<path class="st0" d="M70.3,23.5h-9.6v-1c0.2,0,0.5,0,1-0.1c0.4,0,0.7-0.1,0.9-0.1c0.3-0.1,0.5-0.3,0.6-0.5c0.1-0.2,0.2-0.5,0.2-0.8
		V8.8c0-0.3-0.1-0.5-0.2-0.7c-0.1-0.2-0.3-0.4-0.6-0.5c-0.2-0.1-0.5-0.2-0.9-0.2c-0.4-0.1-0.7-0.1-1-0.2v-1h9.6v1
		c-0.2,0-0.5,0.1-0.9,0.1c-0.4,0-0.7,0.1-0.9,0.2c-0.3,0.1-0.5,0.3-0.6,0.5c-0.1,0.2-0.2,0.5-0.2,0.8v12.3c0,0.3,0.1,0.5,0.2,0.8
		c0.1,0.2,0.3,0.4,0.6,0.5c0.2,0.1,0.5,0.1,0.8,0.2c0.4,0.1,0.7,0.1,1,0.1V23.5z"/>
	<path class="st0" d="M79.2,24c-1.1,0-2-0.1-3-0.4c-0.9-0.3-1.7-0.6-2.3-0.9l-0.8,0.9h-1l-0.2-6.3h1c0.2,0.6,0.5,1.2,0.9,1.9
		c0.4,0.7,0.8,1.3,1.3,1.8c0.5,0.5,1.1,1,1.7,1.3c0.6,0.3,1.3,0.5,2.2,0.5c1.1,0,2-0.3,2.5-0.8c0.6-0.5,0.9-1.2,0.9-2
		c0-0.7-0.2-1.2-0.8-1.7c-0.5-0.5-1.3-0.9-2.3-1.2c-0.7-0.2-1.3-0.4-1.9-0.6c-0.6-0.2-1.1-0.4-1.6-0.6c-1.2-0.5-2-1.1-2.6-2
		c-0.6-0.9-0.8-1.8-0.8-2.9c0-0.7,0.1-1.3,0.4-1.9c0.3-0.6,0.7-1.2,1.3-1.7c0.5-0.5,1.2-0.8,2.1-1.1c0.8-0.3,1.7-0.4,2.7-0.4
		c1,0,1.9,0.1,2.7,0.4c0.8,0.3,1.5,0.5,2,0.8l0.7-0.7h1.1l0.1,5.9h-1c-0.2-0.6-0.5-1.3-0.9-2c-0.3-0.7-0.7-1.2-1-1.7
		c-0.4-0.5-0.9-0.9-1.4-1.1c-0.5-0.3-1.1-0.4-1.8-0.4c-0.9,0-1.6,0.2-2.2,0.7c-0.6,0.5-0.8,1.1-0.8,1.8c0,0.7,0.2,1.3,0.7,1.7
		c0.5,0.4,1.2,0.8,2.3,1.2c0.6,0.2,1.2,0.4,1.8,0.6c0.6,0.2,1.2,0.4,1.7,0.6c1.2,0.5,2.1,1.1,2.7,1.9c0.6,0.8,0.9,1.8,0.9,3
		c0,0.7-0.2,1.5-0.5,2.2c-0.4,0.7-0.8,1.3-1.4,1.7c-0.7,0.5-1.4,0.9-2.3,1.2S80.4,24,79.2,24z"/>
	<path class="st0" d="M109.3,23.5H100v-1c0.2,0,0.5,0,0.9-0.1c0.4,0,0.7-0.1,0.8-0.1c0.3-0.1,0.5-0.3,0.6-0.5
		c0.1-0.2,0.2-0.5,0.2-0.8v-6H95v5.8c0,0.3,0.1,0.5,0.2,0.7c0.1,0.2,0.3,0.4,0.6,0.5c0.2,0.1,0.4,0.1,0.8,0.2
		c0.4,0.1,0.7,0.1,0.9,0.1v1h-9.4v-1c0.2,0,0.5,0,0.9-0.1c0.4,0,0.7-0.1,0.9-0.2c0.3-0.1,0.5-0.3,0.6-0.5c0.1-0.2,0.2-0.5,0.2-0.8
		V8.8c0-0.3-0.1-0.5-0.2-0.7c-0.1-0.2-0.3-0.4-0.6-0.5c-0.2-0.1-0.5-0.2-0.9-0.3c-0.4-0.1-0.7-0.1-0.8-0.2v-1h9.4v1
		c-0.3,0-0.6,0.1-0.9,0.1c-0.4,0.1-0.6,0.1-0.8,0.2c-0.3,0.1-0.5,0.3-0.6,0.5C95.1,8.2,95,8.4,95,8.7v5.2h7.4V8.8
		c0-0.3-0.1-0.5-0.2-0.7c-0.1-0.2-0.3-0.4-0.6-0.5c-0.2-0.1-0.5-0.2-0.8-0.3c-0.4-0.1-0.6-0.1-0.8-0.2v-1h9.4v1
		c-0.3,0-0.6,0.1-0.9,0.1c-0.3,0.1-0.6,0.1-0.9,0.2c-0.3,0.1-0.5,0.3-0.6,0.5c-0.1,0.2-0.2,0.5-0.2,0.7v12.3c0,0.3,0.1,0.5,0.2,0.7
		c0.1,0.2,0.3,0.4,0.6,0.5c0.2,0.1,0.5,0.2,0.8,0.2c0.4,0.1,0.7,0.1,0.9,0.1V23.5z"/>
	<path class="st0" d="M126.2,24.1c-1.3,0-2.5-0.2-3.6-0.5s-2-0.7-2.8-1.1l-1,1h-1.2l-0.2-7.5h1.3c0.3,0.7,0.6,1.5,1.1,2.3
		c0.4,0.8,0.9,1.5,1.5,2.1c0.6,0.7,1.3,1.2,2,1.6s1.6,0.6,2.6,0.6c1.3,0,2.3-0.3,3.1-1c0.7-0.7,1.1-1.5,1.1-2.5c0-0.8-0.3-1.5-0.9-2
		s-1.5-1-2.8-1.4c-0.8-0.3-1.6-0.5-2.3-0.7c-0.7-0.2-1.3-0.5-1.9-0.7c-1.4-0.6-2.4-1.4-3.1-2.4c-0.7-1-1-2.2-1-3.5
		c0-0.8,0.2-1.6,0.5-2.3s0.9-1.4,1.5-2c0.6-0.6,1.5-1,2.5-1.4s2.1-0.5,3.3-0.5c1.2,0,2.2,0.2,3.2,0.5s1.8,0.6,2.4,1l0.9-0.9h1.3
		l0.1,7.1h-1.3c-0.3-0.8-0.6-1.5-1-2.3s-0.8-1.5-1.3-2c-0.5-0.6-1-1-1.7-1.4c-0.6-0.3-1.4-0.5-2.2-0.5c-1.1,0-1.9,0.3-2.6,0.9
		s-1,1.3-1,2.2c0,0.8,0.3,1.5,0.9,2s1.5,1,2.7,1.4c0.7,0.2,1.5,0.5,2.2,0.7s1.4,0.5,2,0.7c1.4,0.5,2.5,1.3,3.2,2.3
		c0.7,1,1.1,2.2,1.1,3.6c0,0.9-0.2,1.8-0.6,2.6s-1,1.5-1.7,2.1c-0.8,0.6-1.7,1.1-2.7,1.4C128.8,23.9,127.6,24.1,126.2,24.1z"/>
	<path class="st0" d="M158,23.5h-9.4v-1c0.2,0,0.5,0,0.9-0.1c0.4,0,0.7-0.1,0.8-0.1c0.3-0.1,0.5-0.3,0.6-0.5
		c0.1-0.2,0.2-0.5,0.2-0.8v-6h-7.4v5.8c0,0.3,0.1,0.5,0.2,0.7c0.1,0.2,0.3,0.4,0.6,0.5c0.2,0.1,0.4,0.1,0.8,0.2
		c0.4,0.1,0.7,0.1,0.9,0.1v1h-9.4v-1c0.2,0,0.5,0,0.9-0.1c0.4,0,0.7-0.1,0.9-0.2c0.3-0.1,0.5-0.3,0.6-0.5c0.1-0.2,0.2-0.5,0.2-0.8
		V8.8c0-0.3-0.1-0.5-0.2-0.7c-0.1-0.2-0.3-0.4-0.6-0.5c-0.2-0.1-0.5-0.2-0.9-0.3c-0.4-0.1-0.7-0.1-0.8-0.2v-1h9.4v1
		c-0.3,0-0.6,0.1-0.9,0.1c-0.3,0.1-0.6,0.1-0.8,0.2c-0.3,0.1-0.5,0.3-0.6,0.5c-0.1,0.2-0.2,0.5-0.2,0.7v5.2h7.4V8.8
		c0-0.3-0.1-0.5-0.2-0.7c-0.1-0.2-0.3-0.4-0.6-0.5c-0.2-0.1-0.5-0.2-0.8-0.3c-0.4-0.1-0.6-0.1-0.8-0.2v-1h9.4v1
		c-0.3,0-0.6,0.1-0.9,0.1c-0.3,0.1-0.6,0.1-0.9,0.2c-0.3,0.1-0.5,0.3-0.6,0.5c-0.1,0.2-0.2,0.5-0.2,0.7v12.3c0,0.3,0.1,0.5,0.2,0.7
		c0.1,0.2,0.3,0.4,0.6,0.5c0.2,0.1,0.5,0.2,0.8,0.2c0.4,0.1,0.7,0.1,0.9,0.1V23.5z"/>
	<path class="st0" d="M175,10.6h-0.9c-0.2-0.7-0.6-1.3-1.2-2c-0.6-0.7-1.2-1.1-1.7-1.2c-0.2-0.1-0.6-0.1-1-0.1c-0.4,0-0.8,0-1.1,0
		h-2.5V14h1.8c0.4,0,0.9-0.1,1.2-0.2c0.4-0.1,0.7-0.3,1-0.6c0.2-0.2,0.4-0.5,0.6-1c0.2-0.5,0.3-0.9,0.4-1.2h0.9v7.2h-0.9
		c0-0.3-0.2-0.8-0.4-1.3c-0.2-0.5-0.4-0.9-0.6-1.1c-0.3-0.3-0.6-0.5-1-0.6c-0.4-0.1-0.8-0.2-1.3-0.2h-1.8v5c0,0.5,0,0.9,0.1,1.2
		c0.1,0.3,0.2,0.5,0.4,0.7c0.2,0.2,0.5,0.3,0.8,0.3c0.4,0,0.8,0.1,1.4,0.1c0.3,0,0.6,0,1,0c0.4,0,0.7,0,1-0.1c0.3,0,0.7-0.1,1-0.2
		c0.3-0.1,0.5-0.2,0.7-0.4c0.4-0.4,0.8-1,1.3-1.8c0.5-0.8,0.8-1.4,1-1.8h0.9l-0.3,5.4h-16.2v-1c0.2,0,0.5,0,0.9-0.1s0.7-0.1,0.8-0.2
		c0.3-0.1,0.5-0.3,0.6-0.5c0.1-0.2,0.2-0.5,0.2-0.8V8.8c0-0.3,0-0.5-0.1-0.7c-0.1-0.2-0.3-0.4-0.6-0.5c-0.2-0.1-0.5-0.2-0.9-0.3
		c-0.4-0.1-0.7-0.1-0.9-0.2v-1H175V10.6z"/>
	<path class="st0" d="M196.5,23.5H187v-1c0.4,0,1-0.1,1.5-0.2c0.6-0.1,0.9-0.3,0.9-0.5c0-0.1,0-0.1,0-0.2c0-0.1,0-0.2-0.1-0.3
		l-1.5-3.6h-6c-0.1,0.3-0.3,0.7-0.5,1.2c-0.2,0.4-0.3,0.8-0.4,1.2c-0.2,0.5-0.2,0.8-0.3,1c0,0.2,0,0.3,0,0.4c0,0.3,0.2,0.5,0.6,0.7
		c0.4,0.2,1.1,0.3,2,0.4v1h-7.1v-1c0.3,0,0.6-0.1,0.9-0.1c0.3-0.1,0.6-0.2,0.8-0.3c0.3-0.2,0.6-0.4,0.8-0.7c0.2-0.3,0.4-0.6,0.6-1
		c0.9-2.3,1.9-4.6,2.8-6.9c0.9-2.3,2-4.8,3.1-7.6h2.4c1.6,3.9,2.8,7,3.7,9.3c0.9,2.3,1.7,4.2,2.3,5.7c0.1,0.2,0.2,0.5,0.4,0.7
		c0.2,0.2,0.4,0.4,0.7,0.6c0.2,0.1,0.5,0.2,0.8,0.3c0.3,0.1,0.6,0.1,0.8,0.1V23.5z M187.4,16.5l-2.5-6.3l-2.5,6.3H187.4z"/>
	<path class="st0" d="M228.7,23.5h-9.5c-0.3-0.3-0.6-0.7-1-1.1s-0.8-0.9-1-1.2c-1.1,1.1-2.3,1.8-3.4,2.3c-1.1,0.5-2.3,0.7-3.6,0.7
		c-2,0-3.7-0.5-4.9-1.6c-1.3-1.1-1.9-2.5-1.9-4.2c0-0.9,0.1-1.6,0.3-2.2c0.2-0.6,0.6-1.2,1.1-1.9c0.5-0.6,1.1-1.1,1.8-1.6
		s1.6-0.9,2.5-1.3c-1-1.2-1.6-2.3-2-3.1c-0.4-0.9-0.6-1.7-0.6-2.6c0-1.5,0.6-2.8,1.9-3.8c1.3-1,2.8-1.5,4.6-1.5c1.7,0,3,0.4,4.1,1.2
		s1.6,1.8,1.6,3.2c0,1.1-0.3,2.2-0.9,3.1c-0.6,0.9-1.7,1.8-3.1,2.6c1.2,1.5,2.1,2.6,2.7,3.4c0.6,0.8,1.5,1.8,2.6,3
		c0.7-1,1.2-1.9,1.5-2.8c0.3-0.8,0.5-1.5,0.5-2.1c0-0.3-0.2-0.6-0.7-0.8c-0.5-0.2-1.2-0.4-2-0.6V9h9v1.2c-1,0.1-1.7,0.2-2.2,0.4
		c-0.5,0.2-0.9,0.5-1.4,0.9c-0.2,0.2-0.4,0.5-0.7,1c-0.3,0.5-0.6,1-0.8,1.4c-0.3,0.5-0.6,1.1-1,1.7c-0.4,0.6-0.8,1.2-1.3,1.9
		c1,1.2,1.8,2,2.4,2.6c0.6,0.6,1.2,1,1.6,1.2c0.5,0.2,1,0.4,1.8,0.6c0.7,0.1,1.4,0.2,2.1,0.3V23.5z M216.3,20.1
		c-0.9-1.1-2-2.3-3.2-3.8c-1.2-1.4-2.3-2.8-3.3-4.1c-0.6,0.6-1,1.2-1.2,2c-0.3,0.7-0.4,1.5-0.4,2.2c0,1.4,0.5,2.6,1.4,3.5
		c0.9,0.9,2.1,1.4,3.5,1.4c0.7,0,1.2-0.1,1.7-0.3C215.2,20.8,215.7,20.5,216.3,20.1z M216.2,4.6c0-0.9-0.2-1.7-0.7-2.2
		c-0.5-0.5-1-0.8-1.8-0.8c-0.7,0-1.3,0.2-1.7,0.7s-0.6,1-0.6,1.7c0,0.6,0.2,1.3,0.6,2.1s1,1.7,1.8,2.9c0.8-0.6,1.4-1.2,1.8-2
		C216,6.2,216.2,5.4,216.2,4.6z"/>
	<path class="st0" d="M254.2,14c0.6,0.4,1.1,1,1.5,1.6s0.6,1.4,0.6,2.3c0,1.1-0.2,1.9-0.7,2.7c-0.4,0.7-1.1,1.3-1.9,1.7
		c-0.9,0.4-1.9,0.8-3,1c-1.1,0.2-2.5,0.3-4.1,0.3h-10.8v-1.1c0.3,0,0.7-0.1,1.1-0.1s0.8-0.1,1-0.2c0.4-0.1,0.6-0.3,0.7-0.6
		c0.1-0.2,0.2-0.5,0.2-0.9V5.9c0-0.4-0.1-0.6-0.2-0.9s-0.4-0.4-0.8-0.6c-0.3-0.1-0.7-0.2-1.1-0.3s-0.8-0.1-1.1-0.2V2.7h11.3
		c2.8,0,4.9,0.4,6.2,1.2s1.9,1.9,1.9,3.5c0,0.7-0.1,1.3-0.4,1.9s-0.7,1-1.2,1.4c-0.5,0.4-1,0.7-1.7,0.9s-1.4,0.5-2.1,0.7v0.3
		c0.8,0.1,1.6,0.2,2.4,0.5S253.6,13.5,254.2,14z M249.5,7.7c0-1.2-0.3-2.1-1-2.7s-1.6-1-2.9-1c-0.2,0-0.4,0-0.7,0
		c-0.3,0-0.6,0-0.8,0v7.7h0.8c1.6,0,2.7-0.4,3.5-1.1S249.5,9,249.5,7.7z M250.5,17.7c0-1.4-0.4-2.6-1.3-3.3
		c-0.9-0.8-2.1-1.2-3.7-1.2c-0.2,0-0.4,0-0.7,0c-0.3,0-0.5,0-0.7,0v7.6c0.1,0.4,0.4,0.7,0.8,0.9s1,0.4,1.7,0.4
		c1.2,0,2.1-0.4,2.8-1.2C250.2,20.2,250.5,19.1,250.5,17.7z"/>
	<path class="st0" d="M274.4,8.1c0.9,0.8,1.5,1.7,2,2.8c0.5,1.1,0.8,2.4,0.8,3.8c0,1.3-0.2,2.5-0.6,3.6c-0.4,1.1-1,2.1-1.8,2.9
		c-0.8,0.9-1.8,1.5-3,2c-1.1,0.5-2.5,0.7-4,0.7c-1.3,0-2.5-0.2-3.6-0.6s-2.1-1-3-1.8c-0.8-0.8-1.5-1.7-2-2.8
		c-0.5-1.1-0.7-2.3-0.7-3.7c0-1.4,0.2-2.7,0.7-3.9c0.5-1.2,1.1-2.1,2-3c0.8-0.8,1.8-1.4,3-1.9c1.2-0.4,2.4-0.7,3.7-0.7
		c1.3,0,2.5,0.2,3.6,0.6C272.6,6.8,273.6,7.3,274.4,8.1z M271.3,20.5c0.4-0.7,0.6-1.6,0.8-2.5c0.2-0.9,0.2-2,0.2-3.2
		c0-1-0.1-2-0.2-2.9c-0.1-0.9-0.4-1.8-0.7-2.5C271,8.6,270.6,8,270,7.6c-0.6-0.4-1.3-0.7-2.2-0.7c-1.5,0-2.6,0.7-3.4,2.1
		c-0.8,1.4-1.1,3.4-1.1,5.9c0,1.1,0.1,2.1,0.2,3.1c0.2,1,0.4,1.8,0.8,2.5c0.4,0.7,0.8,1.3,1.4,1.7c0.6,0.4,1.3,0.6,2.1,0.6
		c0.8,0,1.5-0.2,2.1-0.6C270.5,21.8,270.9,21.2,271.3,20.5z"/>
	<path class="st0" d="M297.2,7.1c-0.3,0-0.6,0.1-0.8,0.2c-0.2,0.1-0.5,0.2-0.7,0.3c-0.3,0.2-0.7,0.4-0.9,0.8c-0.3,0.3-0.5,0.6-0.8,1
		c-0.5,0.8-1.1,1.6-1.7,2.5c-0.6,0.9-1.2,1.9-1.9,3c-0.4,0.7-0.7,1.2-0.8,1.6c-0.1,0.4-0.2,1-0.2,1.9v2.5c0,0.3,0.1,0.5,0.2,0.8
		c0.1,0.2,0.3,0.4,0.6,0.5c0.1,0.1,0.4,0.1,0.9,0.2c0.4,0.1,0.8,0.1,1,0.2v1h-9.7v-1c0.2,0,0.6,0,1-0.1c0.4,0,0.7-0.1,0.9-0.2
		c0.3-0.1,0.5-0.3,0.6-0.5c0.1-0.2,0.2-0.5,0.2-0.8v-3.1c0-0.3,0-0.5,0-0.7c0-0.2,0-0.4-0.1-0.5c-0.1-0.2-0.2-0.4-0.3-0.6
		c-0.1-0.2-0.3-0.6-0.5-0.9c-0.6-1.1-1.2-2.1-1.8-3.1c-0.6-1-1.1-1.9-1.7-2.8c-0.3-0.4-0.6-0.8-0.8-1.1c-0.3-0.3-0.6-0.5-0.9-0.7
		c-0.2-0.1-0.5-0.2-0.8-0.3c-0.3-0.1-0.6-0.1-0.8-0.1v-1h9.9v1c-0.9,0-1.5,0.1-1.8,0.2c-0.3,0.1-0.5,0.2-0.5,0.4
		c0,0.1,0.1,0.3,0.2,0.5s0.3,0.7,0.6,1.2c0.3,0.5,0.7,1.3,1.2,2.2c0.5,0.9,1.2,2,1.9,3.3c1.5-2.4,2.6-4.2,3.2-5.1
		c0.6-1,0.9-1.6,0.9-1.8c0-0.3-0.2-0.5-0.5-0.6c-0.3-0.1-0.9-0.2-1.6-0.3v-1h6.4V7.1z"/>
	<path class="st0" d="M313.5,17.9l-0.3,5.6h-16v-1c0.3,0,0.6-0.1,1-0.1c0.4-0.1,0.6-0.1,0.8-0.2c0.3-0.1,0.5-0.3,0.6-0.5
		c0.1-0.2,0.2-0.5,0.2-0.8V8.8c0-0.3,0-0.5-0.1-0.7c-0.1-0.2-0.3-0.4-0.6-0.5c-0.3-0.1-0.6-0.2-0.9-0.3c-0.4-0.1-0.6-0.1-0.8-0.2v-1
		h9.5v1c-0.3,0-0.6,0.1-0.9,0.1c-0.4,0-0.7,0.1-0.9,0.2c-0.3,0.1-0.5,0.3-0.6,0.5c-0.1,0.2-0.2,0.5-0.2,0.8v11.4c0,0.5,0,1,0.1,1.3
		c0.1,0.3,0.2,0.5,0.4,0.7c0.2,0.2,0.5,0.3,0.9,0.3c0.4,0,0.9,0.1,1.6,0.1c0.7,0,1.3,0,1.9-0.1c0.6-0.1,1.1-0.2,1.3-0.5
		c0.4-0.4,0.8-1,1.3-1.8c0.4-0.8,0.8-1.4,1-2.1H313.5z"/>
	<path class="st0" d="M329.7,10.6h-0.9c-0.2-0.7-0.6-1.3-1.2-2c-0.6-0.7-1.2-1.1-1.7-1.2c-0.2-0.1-0.6-0.1-1-0.1c-0.4,0-0.8,0-1.1,0
		h-2.5V14h1.8c0.4,0,0.9-0.1,1.2-0.2c0.4-0.1,0.7-0.3,1-0.6c0.2-0.2,0.4-0.5,0.6-1c0.2-0.5,0.3-0.9,0.4-1.2h0.9v7.2h-0.9
		c0-0.3-0.2-0.8-0.4-1.3c-0.2-0.5-0.4-0.9-0.6-1.1c-0.3-0.3-0.6-0.5-1-0.6c-0.4-0.1-0.8-0.2-1.3-0.2h-1.8v5c0,0.5,0,0.9,0.1,1.2
		c0.1,0.3,0.2,0.5,0.4,0.7c0.2,0.2,0.5,0.3,0.8,0.3c0.4,0,0.8,0.1,1.4,0.1c0.3,0,0.6,0,1,0c0.4,0,0.7,0,1-0.1c0.3,0,0.7-0.1,1-0.2
		c0.3-0.1,0.5-0.2,0.7-0.4c0.4-0.4,0.8-1,1.3-1.8c0.5-0.8,0.8-1.4,1-1.8h0.9l-0.3,5.4h-16.2v-1c0.2,0,0.5,0,0.9-0.1s0.7-0.1,0.8-0.2
		c0.3-0.1,0.5-0.3,0.6-0.5c0.1-0.2,0.2-0.5,0.2-0.8V8.8c0-0.3,0-0.5-0.1-0.7c-0.1-0.2-0.3-0.4-0.6-0.5c-0.2-0.1-0.5-0.2-0.9-0.3
		c-0.4-0.1-0.7-0.1-0.9-0.2v-1h15.4V10.6z"/>
	<path class="st0" d="M355,17.9l-0.3,5.6h-16v-1c0.3,0,0.6-0.1,1-0.1c0.4-0.1,0.6-0.1,0.8-0.2c0.3-0.1,0.5-0.3,0.6-0.5
		c0.1-0.2,0.2-0.5,0.2-0.8V8.8c0-0.3,0-0.5-0.1-0.7c-0.1-0.2-0.3-0.4-0.6-0.5c-0.3-0.1-0.6-0.2-0.9-0.3c-0.4-0.1-0.6-0.1-0.8-0.2v-1
		h9.5v1c-0.3,0-0.6,0.1-0.9,0.1c-0.4,0-0.7,0.1-0.9,0.2c-0.3,0.1-0.5,0.3-0.6,0.5c-0.1,0.2-0.2,0.5-0.2,0.8v11.4c0,0.5,0,1,0.1,1.3
		c0.1,0.3,0.2,0.5,0.4,0.7c0.2,0.2,0.5,0.3,0.9,0.3c0.4,0,0.9,0.1,1.6,0.1c0.7,0,1.3,0,1.9-0.1c0.6-0.1,1.1-0.2,1.3-0.5
		c0.4-0.4,0.8-1,1.3-1.8c0.4-0.8,0.8-1.4,1-2.1H355z"/>
	<path class="st0" d="M372.2,17.9l-0.3,5.6h-16v-1c0.3,0,0.6-0.1,1-0.1c0.4-0.1,0.6-0.1,0.8-0.2c0.3-0.1,0.5-0.3,0.6-0.5
		c0.1-0.2,0.2-0.5,0.2-0.8V8.8c0-0.3,0-0.5-0.1-0.7c-0.1-0.2-0.3-0.4-0.6-0.5c-0.3-0.1-0.6-0.2-0.9-0.3c-0.4-0.1-0.6-0.1-0.8-0.2v-1
		h9.5v1c-0.3,0-0.6,0.1-0.9,0.1c-0.4,0-0.7,0.1-0.9,0.2c-0.3,0.1-0.5,0.3-0.6,0.5c-0.1,0.2-0.2,0.5-0.2,0.8v11.4c0,0.5,0,1,0.1,1.3
		c0.1,0.3,0.2,0.5,0.4,0.7c0.2,0.2,0.5,0.3,0.9,0.3c0.4,0,0.9,0.1,1.6,0.1c0.7,0,1.3,0,1.9-0.1c0.6-0.1,1.1-0.2,1.3-0.5
		c0.4-0.4,0.8-1,1.3-1.8c0.4-0.8,0.8-1.4,1-2.1H372.2z"/>
	<path class="st0" d="M389.2,10.5c0,1-0.2,1.8-0.6,2.5c-0.4,0.7-1,1.3-1.7,1.7c-0.7,0.5-1.6,0.8-2.5,1c-0.9,0.2-2,0.3-3.2,0.3h-1.4
		v4.9c0,0.3,0.1,0.5,0.2,0.8c0.1,0.2,0.3,0.4,0.6,0.5c0.2,0.1,0.4,0.1,0.8,0.2s0.7,0.1,0.9,0.1v1H373v-1c0.2,0,0.5-0.1,0.9-0.1
		c0.4,0,0.7-0.1,0.8-0.2c0.3-0.1,0.5-0.3,0.6-0.5c0.1-0.2,0.2-0.4,0.2-0.8V8.8c0-0.3,0-0.5-0.1-0.7c-0.1-0.2-0.3-0.4-0.6-0.5
		c-0.2-0.1-0.5-0.2-0.9-0.3c-0.4-0.1-0.7-0.1-0.8-0.2v-1h9.6c2.2,0,3.9,0.4,5,1.1C388.7,8,389.2,9,389.2,10.5z M384.5,11.1
		c0-1.3-0.3-2.3-0.8-2.9c-0.5-0.6-1.5-0.9-2.8-0.9h-1v7.6h0.5c1.3,0,2.3-0.3,3-0.9C384.1,13.4,384.5,12.4,384.5,11.1z"/>
</g>
</svg>
