<?xml version="1.0" encoding="utf-8"?>
<!-- Generator: Adobe Illustrator 21.0.0, SVG Export Plug-In . SVG Version: 6.00 Build 0)  -->
<svg version="1.1" id="Layer_1" xmlns="http://www.w3.org/2000/svg" xmlns:xlink="http://www.w3.org/1999/xlink" x="0px" y="0px"
	 viewBox="0 0 95.9 48.2" style="enable-background:new 0 0 95.9 48.2;" xml:space="preserve">
<g>
	<path d="M78.4,39l17.5-3.3l-0.2-1.3L58,41.5l0.9-1.4c1.7-2.8,2.7-6.1,2.7-9.2c0-1-0.1-2-0.3-2.9l-0.2-0.9h13.2v-1.3H60.6l-0.2-0.5
		c-0.7-1.5-1.6-2.9-2.8-4.1c-2.2-2.2-5.2-3.5-8.4-3.8l-0.7-0.1V0h-1.3v17.3l-0.7,0.1c-3.2,0.3-6.2,1.7-8.4,3.8
		c-1.2,1.2-2.1,2.5-2.8,4.1l-0.2,0.5H21.7v1.3h13.2L34.6,28c-0.2,0.9-0.3,1.9-0.3,2.9c0,3.1,1,6.4,2.7,9.2l0.9,1.4L0.2,34.4L0,35.7
		L17.5,39l-1,1c-0.9,0.9-1.3,2.1-1.3,3.3c0,1.3,0.6,2.6,1.6,3.5c1,0.9,2.4,1.4,3.8,1.4c1.4,0,2.8-0.5,3.8-1.4c1-0.9,1.6-2.2,1.6-3.5
		c0-0.5-0.1-1.1-0.3-1.6l-0.4-1.2l14.2,2.7l0.2,0.2c2.5,2.4,5.3,3.7,8.3,3.7c3,0,5.9-1.3,8.3-3.7l0.2-0.2l14.2-2.7l-0.4,1.2
		c-0.2,0.5-0.3,1-0.3,1.6c0,1.3,0.6,2.6,1.6,3.5c1,0.9,2.4,1.4,3.8,1.4c1.4,0,2.8-0.5,3.8-1.4c1-0.9,1.6-2.2,1.6-3.5
		c0-1.2-0.5-2.4-1.3-3.3L78.4,39z M23.5,45.8c-0.8,0.7-1.8,1.1-2.9,1.1c-1.1,0-2.1-0.4-2.9-1.1c-0.8-0.7-1.2-1.6-1.2-2.5
		c0-1,0.4-1.8,1.2-2.5c1.6-1.4,4.2-1.4,5.8,0v0c0.8,0.7,1.2,1.6,1.2,2.5S24.2,45.1,23.5,45.8z M56.4,41.3c-2.4,2.8-5.4,4.4-8.4,4.4
		s-6.1-1.6-8.4-4.4c-2.4-2.9-3.8-6.7-3.8-10.4c0-3.4,1.2-6.5,3.5-8.7c2.3-2.3,5.4-3.5,8.8-3.5s6.5,1.2,8.8,3.5
		c2.2,2.2,3.5,5.3,3.5,8.7C60.2,34.6,58.8,38.4,56.4,41.3z M78.2,45.8c-0.8,0.7-1.8,1.1-2.9,1.1s-2.1-0.4-2.9-1.1
		c-0.8-0.7-1.2-1.6-1.2-2.5s0.4-1.8,1.2-2.5c1.6-1.4,4.2-1.4,5.8,0v0c0.8,0.7,1.2,1.6,1.2,2.5S79,45.1,78.2,45.8z"/>
	<path d="M41,26v5.8l6.9-0.5l7,0.5V26l-6.9-2.1L41,26z M53.5,30.4L47.9,30l-5.5,0.4V27l5.6-1.7l5.6,1.7V30.4z"/>
</g>
</svg>
