<?xml version="1.0" encoding="utf-8"?>
<!-- Generator: Adobe Illustrator 21.0.0, SVG Export Plug-In . SVG Version: 6.00 Build 0)  -->
<svg version="1.1" id="Layer_1" xmlns="http://www.w3.org/2000/svg" xmlns:xlink="http://www.w3.org/1999/xlink" x="0px" y="0px"
	 viewBox="0 0 61.5 70.7" style="enable-background:new 0 0 61.5 70.7;" xml:space="preserve">
<path d="M61.5,31.3l0-0.2c0-0.4,0-0.6,0-0.6c0-8-3.1-15.6-8.8-21.3C47,3.4,39.5,0.2,31.4,0l-0.7,0l-0.7,0C22,0.2,14.5,3.4,8.8,9.1
	C3.1,14.8,0,22.4,0,30.5l0,0.9l0.1,0.2l30.6,39.2L61.5,31.3z M60.1,30.9l-0.2,0.3L31.6,67.4l14.7-36.3c0-1.8,0.7-3.5,2-4.8
	c1.3-1.3,3-2,4.8-2c1.8,0,3.5,0.7,4.8,2c1.2,1.1,2,2.7,2.2,4.3L60.1,30.9z M36,1.8c6,1.1,11.5,3.9,15.8,8.3
	c3.9,3.9,6.5,8.8,7.7,14.1l0.5,2.1l-1.7-1.4C56.8,23.7,55,23,53,23c-2,0-4,0.8-5.5,2.1l-1.1,1l-0.2-1.5c-0.5-4.4-1.7-8.6-3.8-12.4
	c-1.8-3.4-4.3-6.5-7.2-9.1l-1.9-1.8L36,1.8z M30.3,1.5l0.4-0.3l0.4,0.3c4.2,2.9,7.7,6.9,10.1,11.4c1.9,3.6,3.2,7.6,3.6,11.7l0.2,2
	l-1.5-1.4c-1.5-1.4-3.5-2.2-5.5-2.2c-2.2,0-4.2,0.8-5.7,2.4c-0.4,0.4-0.8,0.9-1.1,1.3l-0.6,1l-0.6-1c-0.3-0.5-0.7-0.9-1.1-1.3
	c-1.5-1.5-3.6-2.4-5.7-2.4c-2.1,0-4,0.8-5.5,2.2l-1.5,1.4l0.2-2c0.5-4.1,1.7-8,3.6-11.7C22.6,8.3,26.1,4.4,30.3,1.5z M2,24.1
	C3.2,18.8,5.9,14,9.7,10.1c4.3-4.3,9.8-7.2,15.8-8.3l2.6-0.5l-1.9,1.8c-2.9,2.6-5.3,5.7-7.2,9.1c-2.1,3.9-3.4,8.1-3.8,12.4L15,26.1
	l-1.1-1c-1.5-1.4-3.4-2.1-5.5-2.1c-1.9,0-3.7,0.7-5.2,1.9l-1.7,1.4L2,24.1z M1.4,30.9l0.1-0.3c0.3-1.6,1.1-3.2,2.2-4.3
	c1.3-1.3,3-2,4.8-2c1.8,0,3.5,0.7,4.8,2c1.3,1.3,2,3,2,4.8v0.1l14.7,36.2L1.4,30.9z M16.6,31l0-0.2c0.1-1.7,0.8-3.3,2-4.5
	c1.3-1.3,3-2,4.8-2c1.8,0,3.5,0.7,4.8,2c1.1,1.1,1.8,2.5,1.9,4h1.4c0.2-1.5,0.8-2.9,1.9-4c1.3-1.3,3-2,4.8-2c1.8,0,3.5,0.7,4.8,2
	c1.2,1.2,1.9,2.8,2,4.5l0,0.2L30.8,66L16.6,31z"/>
</svg>
