<?xml version="1.0" encoding="utf-8"?>
<!-- Generator: Adobe Illustrator 21.0.0, SVG Export Plug-In . SVG Version: 6.00 Build 0)  -->
<svg version="1.1" id="Layer_1" xmlns="http://www.w3.org/2000/svg" xmlns:xlink="http://www.w3.org/1999/xlink" x="0px" y="0px"
	 viewBox="0 0 70.3 71.9" style="enable-background:new 0 0 70.3 71.9;" xml:space="preserve">
<g>
	<path d="M5.5,51.5L6.8,51c-0.6-1.6-1.1-3.2-1.4-4.9c-0.4-1.9-0.6-3.9-0.6-5.8c0-7.3,2.6-14.4,7.5-19.9c4.7-5.4,11-8.9,18-10
		l-0.2-1.3c-7.3,1.2-13.9,4.9-18.8,10.5c-5,5.8-7.8,13.2-7.8,20.8c0,2,0.2,4.1,0.6,6.1C4.4,48.1,4.9,49.8,5.5,51.5z"/>
	<path d="M58,20.3c4.8,5.5,7.5,12.6,7.5,19.9c0,2-0.2,3.9-0.6,5.8c-0.3,1.7-0.8,3.3-1.4,4.9l1.2,0.5c0.6-1.7,1.1-3.4,1.5-5.2
		c0.4-2,0.6-4.1,0.6-6.1c0-7.7-2.8-15-7.8-20.8c-4.9-5.6-11.5-9.3-18.8-10.5l-0.2,1.3C47,11.4,53.4,14.9,58,20.3z"/>
	<path d="M35.1,70.6c-4.7,0-9.2-1-13.3-3.1c-3.9-1.9-7.4-4.7-10.2-8.1l-1.1,0.8c2.9,3.5,6.6,6.4,10.6,8.4c4.4,2.1,9,3.2,13.9,3.2
		c4.9,0,9.5-1.1,13.9-3.2c4.1-2,7.8-4.9,10.6-8.4l-1.1-0.8c-2.8,3.4-6.3,6.2-10.2,8.1C44.3,69.5,39.8,70.6,35.1,70.6z"/>
	<path d="M54.1,49.6c1.5-2.9,2.2-6.1,2.2-9.4c0-5.7-2.2-11-6.2-15c-3.6-3.6-8.5-5.8-13.6-6.2l-0.7,0V0h-1.3v19l-0.7,0
		c-5.1,0.3-10,2.5-13.6,6.2c-4,4-6.2,9.3-6.2,15c0,3.3,0.7,6.5,2.2,9.4l0.3,0.6L0,59.7l0.7,1.1l16.5-9.5l0.4,0.6
		c0.8,1.2,1.7,2.2,2.6,3.2c4,4,9.3,6.2,15,6.2c5.7,0,11-2.2,15-6.2c1-1,1.9-2.1,2.6-3.2l0.4-0.6l16.5,9.5l0.7-1.1l-16.5-9.5
		L54.1,49.6z M35.1,35c2.9,0,5.2,2.3,5.2,5.2s-2.3,5.2-5.2,5.2c-2.9,0-5.2-2.3-5.2-5.2S32.3,35,35.1,35z M17.3,48.8
		c-1.3-2.7-2-5.6-2-8.6c0-5.3,2.1-10.3,5.8-14c3.4-3.4,7.8-5.4,12.6-5.8l0.8-0.1v13.3l-0.6,0.1c-3.1,0.6-5.3,3.3-5.3,6.4
		c0,0.7,0.1,1.4,0.4,2.1l0.2,0.6l-11.5,6.7L17.3,48.8z M51.6,51.4c-0.7,1-1.5,2-2.4,2.9c-3.7,3.7-8.7,5.8-14,5.8
		c-5.3,0-10.3-2.1-14-5.8c-0.9-0.9-1.7-1.8-2.4-2.9l-0.5-0.7l11.5-6.7l0.4,0.5c1.2,1.4,3,2.2,4.9,2.2c1.9,0,3.7-0.8,4.9-2.2l0.4-0.5
		L52,50.7L51.6,51.4z M53,48.8l-0.4,0.7l-11.5-6.7l0.2-0.6c0.2-0.7,0.4-1.4,0.4-2.1c0-3.1-2.2-5.8-5.3-6.4l-0.6-0.1V20.3l0.8,0.1
		c4.7,0.3,9.2,2.4,12.6,5.8c3.7,3.7,5.8,8.7,5.8,14C55,43.2,54.3,46.1,53,48.8z"/>
</g>
</svg>
