<?xml version="1.0" encoding="utf-8"?>
<!-- Generator: Adobe Illustrator 21.0.0, SVG Export Plug-In . SVG Version: 6.00 Build 0)  -->
<svg version="1.1" id="Layer_1" xmlns="http://www.w3.org/2000/svg" xmlns:xlink="http://www.w3.org/1999/xlink" x="0px" y="0px"
	 viewBox="0 0 94.2 50.3" style="enable-background:new 0 0 94.2 50.3;" xml:space="preserve">
<path d="M47.1,33.2c-1.5,0-2.9,0.6-3.9,1.6c-1,1-1.6,2.4-1.6,3.9c0,1.5,0.6,2.9,1.6,3.9c1,1,2.4,1.6,3.9,1.6s2.9-0.6,3.9-1.6
	c1-1,1.6-2.4,1.6-3.9s-0.6-2.9-1.6-3.9C50,33.8,48.6,33.2,47.1,33.2z M50.1,41.7c-0.8,0.8-1.8,1.2-3,1.2s-2.2-0.4-3-1.2
	c-0.8-0.8-1.2-1.8-1.2-3s0.4-2.2,1.2-3c0.8-0.8,1.8-1.2,3-1.2h0c1.1,0,2.2,0.4,3,1.2c0.8,0.8,1.2,1.8,1.2,3S50.9,40.9,50.1,41.7z"/>
<path d="M81.9,29.6c0.2-0.4,0.4-0.9,0.5-1.4l0.1-0.6l0.2,0l11.5-1.2l-0.1-1.3l-11.6,1.2l-0.2-0.5c-0.1-0.2-0.2-0.4-0.3-0.7l-0.3-0.5
	l6.2-6.2l-0.9-0.9l-6.2,6.2l-0.5-0.3c-1.4-0.8-3.1-0.8-4.5,0l-0.5,0.3l-6.2-6.2l-0.9,0.9l6.1,6.2L74,25.1c-0.3,0.5-0.5,1-0.5,1.5
	l-0.1,0.6l-13.8,1.4l-0.2-0.4c-1.1-2.1-2.3-3.7-3.7-5c-2-1.9-4.4-2.9-7.2-3.1L47.8,20V0h-1.3v20l-0.7,0.1c-2.8,0.2-5.2,1.3-7.2,3.1
	c-1.4,1.3-2.6,2.9-3.7,5l-0.2,0.4l-0.2,0l-13.6-1.4l-0.1-0.6c-0.1-0.5-0.3-1.1-0.5-1.5l-0.3-0.5l6.2-6.2l-0.9-0.9L19,23.7l-0.5-0.3
	c-1.4-0.8-3.1-0.8-4.5,0l-0.5,0.3l-6.2-6.2l-0.9,0.9l6.2,6.2l-0.3,0.5c-0.1,0.2-0.2,0.4-0.3,0.7l-0.2,0.5L0.1,25.1L0,26.5l11.6,1.2
	l0.1,0.6c0.1,0.5,0.3,1,0.5,1.4l0.3,0.5l-6.2,6.2l0.9,0.9l6.2-6.2l0.5,0.3c1.4,0.8,3.1,0.8,4.5,0L19,31l6.2,6.2l0.9-0.9l-6.2-6.2
	l0.3-0.5c0.1-0.2,0.2-0.3,0.3-0.5l0.2-0.5L34,29.9l-0.4,0.9c-0.6,1.5-1.2,3.2-1.7,5c-0.3,1.2-0.5,2.6-0.5,3.8c0,2.6,0.8,4.8,2.5,6.6
	c1.5,1.6,3.7,2.7,6.4,3.4c2,0.5,4.3,0.8,6.8,0.8c2.5,0,4.8-0.3,6.8-0.8c2.7-0.7,4.9-1.8,6.4-3.4c1.7-1.7,2.5-3.9,2.5-6.6
	c0-1.2-0.2-2.5-0.5-3.8c-0.5-1.8-1.1-3.5-1.7-5l-0.4-0.9l13.3-1.3l0.2,0.5c0.1,0.2,0.2,0.4,0.3,0.5l0.3,0.5l-6.2,6.2l0.9,0.9
	l6.2-6.2l0.5,0.3c1.4,0.8,3.1,0.8,4.5,0l0.5-0.3l6.2,6.2l0.9-0.9l-6.2-6.2L81.9,29.6z M16.2,30.6c-1.8,0-3.2-1.4-3.2-3.2
	s1.4-3.2,3.2-3.2c1.8,0,3.2,1.4,3.2,3.2S18,30.6,16.2,30.6z M61,36.1L61,36.1c0.3,1.2,0.5,2.4,0.5,3.4c0,2.3-0.7,4.2-2.1,5.6
	c-1.3,1.4-3.3,2.4-5.8,3c-1.9,0.5-4,0.7-6.4,0.7c-2.4,0-4.6-0.2-6.4-0.7c-2.5-0.6-4.4-1.6-5.8-3c-1.4-1.5-2.1-3.4-2.1-5.6
	c0-1.1,0.2-2.3,0.5-3.4c1.6-5.7,3.6-9.6,6.2-12c2.1-1.9,4.6-2.8,7.7-2.8s5.6,0.9,7.7,2.8C57.4,26.5,59.4,30.5,61,36.1z M78,30.6
	c-1.8,0-3.2-1.4-3.2-3.2s1.4-3.2,3.2-3.2c1.8,0,3.2,1.4,3.2,3.2S79.8,30.6,78,30.6z"/>
</svg>
