<?xml version="1.0" encoding="utf-8"?>
<!-- Generator: Adobe Illustrator 21.0.0, SVG Export Plug-In . SVG Version: 6.00 Build 0)  -->
<svg version="1.1" id="Layer_1" xmlns="http://www.w3.org/2000/svg" xmlns:xlink="http://www.w3.org/1999/xlink" x="0px" y="0px"
	 viewBox="0 0 94.1 33.2" style="enable-background:new 0 0 94.1 33.2;" xml:space="preserve">
<path d="M59,5.1l-0.3-0.3C55.6,1.7,51.4,0,47,0c-4.4,0-8.6,1.7-11.7,4.8l-0.3,0.3L0.2,0.8L0,2.1l33.9,4.2l-0.7,1
	c-1.2,1.8-2.1,3.8-2.5,5.9l-0.1,0.7L7.1,11l-0.2,1.3l23.5,2.9l0,0.7c0,0.2,0,0.5,0,0.7c0,2,0.3,3.9,1,5.7l0.4,1.2L14,21.3l-0.2,1.3
	l18.8,2.3l0.2,0.3c0.7,1.1,1.5,2.2,2.5,3.2c3.1,3.1,7.3,4.9,11.8,4.9s8.6-1.7,11.8-4.9c1-1,1.8-2,2.5-3.2l0.2-0.3l18.8-2.3l-0.2-1.3
	l-17.9,2.2l0.4-1.2c0.7-1.8,1-3.7,1-5.7c0-0.2,0-0.5,0-0.7l0-0.7l23.5-2.9L87,11l-23.5,2.9l-0.1-0.7c-0.4-2.1-1.3-4.1-2.5-5.9
	l-0.7-1l34-4.2l-0.2-1.3L59,5.1z M62.3,16.6c0,4.1-1.6,7.9-4.5,10.8c-2.9,2.9-6.7,4.5-10.8,4.5s-7.9-1.6-10.8-4.5
	c-2.9-2.9-4.5-6.7-4.5-10.8s1.6-7.9,4.5-10.8c2.9-2.9,6.7-4.5,10.8-4.5S55,2.9,57.8,5.8C60.7,8.7,62.3,12.5,62.3,16.6z"/>
<path d="M47,6.9l-3.5,5.1l-5.9,1.8l3.7,4.9l-0.1,6.2l5.9-2l5.9,2l-0.1-6.2l3.7-4.9l-5.9-1.8L47,6.9z M51.4,18.3l0.1,4.8L47,21.5
	L42.5,23l0.1-4.8l-2.9-3.8l4.5-1.4L47,9.2l2.7,3.9l4.5,1.4L51.4,18.3z"/>
</svg>
