<?xml version="1.0" encoding="utf-8"?>
<!-- Generator: Adobe Illustrator 21.0.0, SVG Export Plug-In . SVG Version: 6.00 Build 0)  -->
<svg version="1.1" id="Layer_1" xmlns="http://www.w3.org/2000/svg" xmlns:xlink="http://www.w3.org/1999/xlink" x="0px" y="0px"
	 viewBox="0 0 69.6 69.6" style="enable-background:new 0 0 69.6 69.6;" xml:space="preserve">
<path d="M34.8,0c-9.3,0-18,3.6-24.6,10.2C3.6,16.8,0,25.5,0,34.8s3.6,18,10.2,24.6c6.6,6.6,15.3,10.2,24.6,10.2
	c9.3,0,18-3.6,24.6-10.2c6.6-6.6,10.2-15.3,10.2-24.6s-3.6-18-10.2-24.6C52.9,3.6,44.1,0,34.8,0z M58.5,58.5
	c-6.3,6.3-14.7,9.8-23.7,9.8s-17.3-3.5-23.7-9.8c-6.3-6.3-9.8-14.7-9.8-23.7c0-8.9,3.5-17.3,9.8-23.7s14.7-9.8,23.7-9.8
	s17.3,3.5,23.7,9.8c6.3,6.3,9.8,14.7,9.8,23.7C68.3,43.8,64.8,52.2,58.5,58.5z"/>
<path d="M34.8,11.3c-6.3,0-12.2,2.4-16.6,6.9c-4.4,4.4-6.9,10.3-6.9,16.6s2.4,12.2,6.9,16.6c4.4,4.4,10.3,6.9,16.6,6.9
	c6.3,0,12.2-2.4,16.6-6.9c4.4-4.4,6.9-10.3,6.9-16.6s-2.4-12.2-6.9-16.6C47,13.8,41.1,11.3,34.8,11.3z M16.2,22.7
	c0.8-1.3,1.8-2.5,2.9-3.6c3.7-3.7,8.7-6,13.9-6.4l0.9-0.1l-0.1,0.9c-0.3,2.2-0.4,4.4-0.4,6.9c0,2.4,0.1,4.9,0.2,7.9l0,0.6l-0.6,0.2
	c-1.2,0.4-2.2,1.1-3,2l-0.4,0.5l-0.5-0.3c-2.7-1.3-4.8-2.5-6.8-3.7c-2.2-1.3-4.2-2.6-6-4l-0.6-0.4L16.2,22.7z M34.8,30.2
	c1.2,0,2.4,0.5,3.3,1.3c0.9,0.9,1.3,2,1.3,3.3c0,2.5-2.1,4.6-4.6,4.6c-1.2,0-2.4-0.5-3.3-1.3c-0.9-0.9-1.3-2-1.3-3.3
	C30.2,32.3,32.3,30.2,34.8,30.2z M15.4,45.5L15,44.9c-1.6-3.1-2.4-6.5-2.4-10c0-3.3,0.7-6.5,2.1-9.5l0.4-0.8l0.7,0.5
	c1.8,1.3,3.7,2.6,5.8,3.8c2,1.2,4.2,2.4,6.9,3.7l0.5,0.3L29,33.4c-0.1,0.5-0.2,0.9-0.2,1.4c0,0.8,0.1,1.5,0.4,2.2l0.2,0.6L29,37.9
	c-2.5,1.7-4.6,3-6.6,4.1c-2.2,1.3-4.3,2.3-6.4,3.2L15.4,45.5z M34.4,56.3L34.3,57l-0.7,0c-5.5-0.3-10.6-2.6-14.5-6.5
	c-0.9-0.9-1.8-2-2.6-3.1L16,46.6l0.8-0.4c2-0.9,4-1.9,6.2-3.1c2.1-1.2,4.2-2.5,6.7-4.1l0.5-0.3l0.4,0.4c0.9,0.9,2,1.4,3.3,1.6
	l0.6,0.1l0,0.6c0.2,3,0.3,5.5,0.2,7.8C34.8,51.7,34.7,54,34.4,56.3z M53.4,46.9c-0.8,1.3-1.8,2.5-2.9,3.6c-3.7,3.7-8.7,6-13.9,6.4
	L35.7,57l0.1-0.9c0.3-2.2,0.4-4.4,0.4-6.9c0-2.4-0.1-4.9-0.2-7.9l0-0.6l0.6-0.2c1.2-0.3,2.2-1.1,3-2l0.4-0.5l0.5,0.3
	c2.6,1.3,4.8,2.5,6.8,3.7c2.2,1.3,4.2,2.6,6,4l0.6,0.4L53.4,46.9z M54.3,24.1l0.3,0.6c1.6,3.1,2.4,6.5,2.4,10c0,3.3-0.7,6.5-2.1,9.5
	l-0.4,0.8l-0.7-0.5c-1.8-1.3-3.7-2.6-5.8-3.8c-2-1.2-4.2-2.4-6.9-3.7l-0.5-0.3l0.1-0.6c0.1-0.5,0.2-0.9,0.2-1.4
	c0-0.8-0.1-1.5-0.4-2.2L40.1,32l0.5-0.3c2.5-1.7,4.6-3,6.6-4.1c2.2-1.3,4.3-2.3,6.4-3.2L54.3,24.1z M53.6,23l-0.8,0.4
	c-2,0.9-4,1.9-6.2,3.1c-2.1,1.2-4.2,2.5-6.7,4.1l-0.5,0.3l-0.4-0.4c-0.9-0.9-2-1.4-3.3-1.6L35,28.8l0-0.6c-0.2-3-0.3-5.5-0.2-7.8
	c0-2.6,0.2-4.9,0.5-7.2l0.1-0.7l0.7,0c5.5,0.3,10.6,2.6,14.5,6.5c0.9,0.9,1.8,2,2.6,3.1L53.6,23z"/>
</svg>
