<svg id="logo" xmlns="http://www.w3.org/2000/svg" xmlns:xlink="http://www.w3.org/1999/xlink" x="0px" y="0px"
	 viewBox="0 0 393.1 24.3" style="enable-background:new 0 0 393.1 24.3;" xml:space="preserve">
<style type="text/css">
	.st0{fill:#FFFFFF;}
</style>
<g>
	<path class="st0" d="M19.7,8c0,1.2-0.2,2.2-0.7,3.1c-0.5,0.9-1.2,1.5-2,2.1c-0.9,0.6-1.9,1-3,1.2c-1.1,0.2-2.4,0.4-3.8,0.4H8.3v5.9
		c0,0.4,0.1,0.7,0.2,0.9s0.4,0.5,0.8,0.6c0.2,0.1,0.5,0.2,1,0.3c0.4,0.1,0.8,0.1,1.1,0.2v1.2H0v-1.2c0.3,0,0.7-0.1,1.1-0.1
		c0.5-0.1,0.8-0.1,1-0.2c0.4-0.2,0.6-0.4,0.8-0.6c0.1-0.2,0.2-0.5,0.2-0.9V5.9C3.1,5.6,3,5.3,2.9,5C2.8,4.8,2.5,4.6,2.1,4.4
		C1.9,4.3,1.5,4.2,1,4.1C0.6,4,0.2,3.9,0,3.9V2.7h11.6c2.7,0,4.7,0.4,6.1,1.3C19,4.9,19.7,6.2,19.7,8z M13.9,8.7
		c0-1.6-0.3-2.7-1-3.5c-0.6-0.8-1.8-1.1-3.4-1.1H8.3v9.2H9c1.6,0,2.8-0.4,3.7-1.1S13.9,10.3,13.9,8.7z"/>
	<path class="st0" d="M40.1,23.7h-9.5v-1c0.4,0,1-0.1,1.6-0.2c0.6-0.1,0.9-0.3,0.9-0.5c0-0.1,0-0.1,0-0.2c0-0.1,0-0.2-0.1-0.3
		l-1.5-3.6h-6c-0.1,0.3-0.3,0.7-0.5,1.2c-0.2,0.5-0.3,0.9-0.4,1.2c-0.2,0.5-0.2,0.8-0.3,1c0,0.2,0,0.3,0,0.4c0,0.3,0.2,0.5,0.6,0.7
		c0.4,0.2,1.1,0.3,2,0.4v1h-7.2v-1c0.3,0,0.6-0.1,0.9-0.1c0.3-0.1,0.6-0.2,0.8-0.3c0.3-0.2,0.6-0.4,0.9-0.7c0.2-0.3,0.4-0.6,0.6-1
		c1-2.3,1.9-4.6,2.9-6.9c1-2.3,2-4.9,3.2-7.7h2.5c1.6,4,2.9,7.1,3.8,9.4c0.9,2.3,1.7,4.2,2.3,5.7c0.1,0.2,0.2,0.5,0.4,0.7
		c0.2,0.2,0.4,0.4,0.7,0.6c0.2,0.1,0.5,0.2,0.8,0.3c0.3,0.1,0.6,0.1,0.8,0.1V23.7z M30.9,16.7l-2.5-6.3l-2.5,6.3H30.9z"/>
	<path class="st0" d="M60.3,7.2c-0.2,0-0.6,0.1-1,0.1c-0.4,0.1-0.8,0.2-1.2,0.5C57.9,8,57.7,8.4,57.5,9c-0.1,0.5-0.2,1.3-0.2,2.4
		v12.5h-2.2L44.2,10.3v8.2c0,1,0.1,1.8,0.2,2.3c0.1,0.5,0.4,0.9,0.7,1.2c0.2,0.2,0.6,0.3,1.1,0.5c0.5,0.1,0.9,0.2,1.2,0.3v1h-7.5v-1
		c0.3,0,0.7-0.1,1.1-0.2c0.4-0.1,0.8-0.2,1-0.4c0.3-0.2,0.5-0.6,0.7-1.1c0.1-0.5,0.2-1.3,0.2-2.4v-8.3c0-0.4-0.1-0.8-0.2-1.2
		c-0.1-0.4-0.3-0.7-0.6-0.9c-0.3-0.3-0.6-0.5-1-0.7c-0.4-0.2-0.8-0.3-1.3-0.4v-1h6.6l9.6,11.8v-6.6c0-1.1-0.1-1.8-0.2-2.3
		C55.5,8.6,55.3,8.2,55,8c-0.2-0.2-0.6-0.4-1.1-0.5c-0.5-0.1-0.8-0.2-1.1-0.3v-1h7.5V7.2z"/>
	<path class="st0" d="M71,23.7h-9.7v-1c0.2,0,0.5,0,1-0.1c0.4,0,0.7-0.1,0.9-0.1c0.3-0.1,0.5-0.3,0.6-0.5c0.1-0.2,0.2-0.5,0.2-0.8
		V8.9c0-0.3-0.1-0.5-0.2-0.7c-0.1-0.2-0.3-0.4-0.6-0.5c-0.2-0.1-0.5-0.2-0.9-0.3c-0.4-0.1-0.7-0.1-1-0.2v-1H71v1
		c-0.2,0-0.6,0.1-0.9,0.1c-0.4,0-0.7,0.1-0.9,0.2c-0.3,0.1-0.5,0.3-0.6,0.5c-0.1,0.2-0.2,0.5-0.2,0.8v12.4c0,0.3,0.1,0.5,0.2,0.8
		c0.1,0.2,0.3,0.4,0.6,0.5c0.2,0.1,0.5,0.1,0.9,0.2c0.4,0.1,0.7,0.1,1,0.1V23.7z"/>
	<path class="st0" d="M80,24.2c-1.1,0-2.1-0.1-3-0.4c-0.9-0.3-1.7-0.6-2.3-0.9l-0.9,0.9h-1l-0.2-6.3h1.1c0.2,0.6,0.5,1.2,0.9,1.9
		c0.4,0.7,0.8,1.3,1.3,1.8c0.5,0.6,1.1,1,1.7,1.3c0.6,0.3,1.3,0.5,2.2,0.5c1.1,0,2-0.3,2.6-0.8c0.6-0.5,0.9-1.2,0.9-2.1
		c0-0.7-0.3-1.3-0.8-1.7c-0.5-0.5-1.3-0.9-2.3-1.2c-0.7-0.2-1.3-0.4-1.9-0.6c-0.6-0.2-1.1-0.4-1.6-0.6c-1.2-0.5-2-1.1-2.6-2
		c-0.6-0.9-0.9-1.8-0.9-2.9c0-0.7,0.1-1.3,0.4-2c0.3-0.6,0.7-1.2,1.3-1.7c0.5-0.5,1.2-0.9,2.1-1.1c0.8-0.3,1.8-0.4,2.8-0.4
		c1,0,1.9,0.1,2.7,0.4c0.8,0.3,1.5,0.5,2,0.8l0.8-0.7h1.1l0.1,6h-1.1c-0.2-0.6-0.5-1.3-0.9-2C84,9.6,83.7,9,83.3,8.6
		c-0.4-0.5-0.9-0.9-1.4-1.1C81.4,7.1,80.8,7,80.1,7c-0.9,0-1.6,0.3-2.2,0.8C77.3,8.2,77,8.9,77,9.6c0,0.7,0.2,1.3,0.7,1.7
		c0.5,0.4,1.3,0.8,2.3,1.2c0.6,0.2,1.2,0.4,1.9,0.6c0.6,0.2,1.2,0.4,1.7,0.6c1.2,0.5,2.1,1.1,2.7,1.9c0.6,0.8,0.9,1.8,0.9,3
		c0,0.8-0.2,1.5-0.5,2.2c-0.4,0.7-0.8,1.3-1.4,1.8c-0.7,0.5-1.4,0.9-2.3,1.2S81.2,24.2,80,24.2z"/>
	<path class="st0" d="M110.4,23.7H101v-1c0.2,0,0.5,0,0.9-0.1c0.4,0,0.7-0.1,0.8-0.1c0.3-0.1,0.5-0.3,0.6-0.5
		c0.1-0.2,0.2-0.5,0.2-0.8v-6H96v5.9c0,0.3,0.1,0.5,0.2,0.8c0.1,0.2,0.3,0.4,0.6,0.5c0.2,0.1,0.4,0.1,0.8,0.2
		c0.4,0.1,0.7,0.1,0.9,0.1v1h-9.5v-1c0.2,0,0.5,0,0.9-0.1c0.4,0,0.7-0.1,0.9-0.2c0.3-0.1,0.5-0.3,0.6-0.5c0.1-0.2,0.2-0.5,0.2-0.8
		V8.9c0-0.3-0.1-0.5-0.2-0.7c-0.1-0.2-0.3-0.4-0.6-0.5c-0.2-0.1-0.6-0.2-0.9-0.3c-0.4-0.1-0.7-0.1-0.8-0.2v-1h9.5v1
		c-0.3,0-0.6,0.1-0.9,0.1c-0.4,0.1-0.6,0.1-0.8,0.2c-0.3,0.1-0.5,0.3-0.6,0.5C96,8.2,96,8.5,96,8.8V14h7.5V8.9
		c0-0.3-0.1-0.5-0.2-0.7c-0.1-0.2-0.3-0.4-0.6-0.5c-0.2-0.1-0.5-0.2-0.9-0.3c-0.4-0.1-0.6-0.1-0.9-0.2v-1h9.5v1
		c-0.3,0-0.6,0.1-0.9,0.1c-0.3,0.1-0.6,0.1-0.9,0.2c-0.3,0.1-0.5,0.3-0.6,0.5c-0.1,0.2-0.2,0.5-0.2,0.8v12.4c0,0.3,0.1,0.5,0.2,0.8
		c0.1,0.2,0.3,0.4,0.6,0.5c0.2,0.1,0.5,0.2,0.9,0.2c0.4,0.1,0.7,0.1,0.9,0.1V23.7z"/>
	<path class="st0" d="M127.5,24.3c-1.3,0-2.5-0.2-3.6-0.5c-1.1-0.3-2-0.7-2.8-1.1l-1,1h-1.3l-0.2-7.6h1.3c0.3,0.7,0.7,1.5,1.1,2.3
		c0.4,0.8,1,1.5,1.5,2.2c0.6,0.7,1.3,1.2,2,1.6c0.7,0.4,1.6,0.6,2.6,0.6c1.3,0,2.4-0.3,3.1-1c0.7-0.7,1.1-1.5,1.1-2.5
		c0-0.8-0.3-1.5-0.9-2.1c-0.6-0.6-1.5-1-2.8-1.4c-0.8-0.3-1.6-0.5-2.3-0.7c-0.7-0.2-1.3-0.5-2-0.7c-1.4-0.6-2.5-1.4-3.1-2.4
		c-0.7-1-1-2.2-1-3.5c0-0.8,0.2-1.6,0.5-2.4c0.4-0.8,0.9-1.4,1.6-2c0.7-0.6,1.5-1,2.5-1.4s2.1-0.5,3.3-0.5c1.2,0,2.3,0.2,3.3,0.5
		s1.8,0.7,2.4,1l0.9-0.9h1.3l0.1,7.2h-1.3c-0.3-0.8-0.6-1.6-1-2.4c-0.4-0.8-0.8-1.5-1.3-2c-0.5-0.6-1-1-1.7-1.4
		c-0.6-0.3-1.4-0.5-2.2-0.5c-1.1,0-1.9,0.3-2.6,0.9s-1,1.3-1,2.2c0,0.8,0.3,1.5,0.9,2.1s1.5,1,2.7,1.4c0.7,0.2,1.5,0.5,2.2,0.7
		c0.8,0.2,1.4,0.5,2,0.7c1.4,0.6,2.5,1.3,3.3,2.3c0.7,1,1.1,2.2,1.1,3.6c0,0.9-0.2,1.8-0.6,2.6c-0.4,0.8-1,1.6-1.7,2.1
		c-0.8,0.6-1.7,1.1-2.7,1.4C130.1,24.1,128.9,24.3,127.5,24.3z"/>
	<path class="st0" d="M159.5,23.7h-9.5v-1c0.2,0,0.5,0,0.9-0.1c0.4,0,0.7-0.1,0.8-0.1c0.3-0.1,0.5-0.3,0.6-0.5
		c0.1-0.2,0.2-0.5,0.2-0.8v-6h-7.5v5.9c0,0.3,0.1,0.5,0.2,0.8c0.1,0.2,0.3,0.4,0.6,0.5c0.2,0.1,0.4,0.1,0.8,0.2
		c0.4,0.1,0.7,0.1,0.9,0.1v1h-9.5v-1c0.2,0,0.5,0,0.9-0.1c0.4,0,0.7-0.1,0.9-0.2c0.3-0.1,0.5-0.3,0.6-0.5c0.1-0.2,0.2-0.5,0.2-0.8
		V8.9c0-0.3-0.1-0.5-0.2-0.7c-0.1-0.2-0.3-0.4-0.6-0.5c-0.2-0.1-0.6-0.2-0.9-0.3c-0.4-0.1-0.7-0.1-0.8-0.2v-1h9.5v1
		c-0.3,0-0.6,0.1-0.9,0.1c-0.4,0.1-0.6,0.1-0.8,0.2c-0.3,0.1-0.5,0.3-0.6,0.5c-0.1,0.2-0.2,0.5-0.2,0.7V14h7.5V8.9
		c0-0.3-0.1-0.5-0.2-0.7c-0.1-0.2-0.3-0.4-0.6-0.5c-0.2-0.1-0.5-0.2-0.9-0.3c-0.4-0.1-0.6-0.1-0.9-0.2v-1h9.5v1
		c-0.3,0-0.6,0.1-0.9,0.1c-0.3,0.1-0.6,0.1-0.9,0.2c-0.3,0.1-0.5,0.3-0.6,0.5C157,8.2,157,8.5,157,8.8v12.4c0,0.3,0.1,0.5,0.2,0.8
		c0.1,0.2,0.3,0.4,0.6,0.5c0.2,0.1,0.5,0.2,0.9,0.2c0.4,0.1,0.7,0.1,0.9,0.1V23.7z"/>
	<path class="st0" d="M176.7,10.7h-0.9c-0.2-0.7-0.6-1.3-1.2-2c-0.6-0.7-1.2-1.1-1.7-1.2c-0.2-0.1-0.6-0.1-1-0.1c-0.4,0-0.8,0-1.1,0
		h-2.5v6.7h1.8c0.5,0,0.9-0.1,1.2-0.2c0.4-0.1,0.7-0.3,1-0.6c0.2-0.2,0.4-0.5,0.6-1c0.2-0.5,0.3-0.9,0.4-1.2h0.9v7.3h-0.9
		c0-0.3-0.2-0.8-0.4-1.3c-0.2-0.5-0.4-0.9-0.6-1.1c-0.3-0.3-0.6-0.5-1-0.6c-0.4-0.1-0.8-0.2-1.3-0.2h-1.8v5c0,0.5,0,0.9,0.1,1.3
		c0.1,0.3,0.2,0.5,0.4,0.7c0.2,0.2,0.5,0.3,0.8,0.3c0.4,0,0.8,0.1,1.5,0.1c0.3,0,0.6,0,1,0c0.4,0,0.8,0,1.1-0.1c0.3,0,0.7-0.1,1-0.2
		c0.3-0.1,0.5-0.2,0.7-0.4c0.4-0.4,0.8-1,1.3-1.8c0.5-0.8,0.8-1.4,1-1.9h0.9l-0.3,5.4h-16.4v-1c0.2,0,0.5,0,0.9-0.1s0.7-0.1,0.8-0.2
		c0.3-0.1,0.5-0.3,0.6-0.5c0.1-0.2,0.2-0.5,0.2-0.8V8.9c0-0.3,0-0.5-0.1-0.7c-0.1-0.2-0.3-0.4-0.7-0.5c-0.2-0.1-0.5-0.2-0.9-0.3
		c-0.4-0.1-0.7-0.1-0.9-0.2v-1h15.5V10.7z"/>
	<path class="st0" d="M198.4,23.7h-9.5v-1c0.4,0,1-0.1,1.6-0.2c0.6-0.1,0.9-0.3,0.9-0.5c0-0.1,0-0.1,0-0.2c0-0.1,0-0.2-0.1-0.3
		l-1.5-3.6h-6c-0.1,0.3-0.3,0.7-0.5,1.2c-0.2,0.5-0.3,0.9-0.4,1.2c-0.2,0.5-0.2,0.8-0.3,1c0,0.2,0,0.3,0,0.4c0,0.3,0.2,0.5,0.6,0.7
		c0.4,0.2,1.1,0.3,2,0.4v1h-7.2v-1c0.3,0,0.6-0.1,0.9-0.1c0.3-0.1,0.6-0.2,0.8-0.3c0.3-0.2,0.6-0.4,0.9-0.7c0.2-0.3,0.4-0.6,0.6-1
		c1-2.3,1.9-4.6,2.9-6.9c1-2.3,2-4.9,3.2-7.7h2.5c1.6,4,2.9,7.1,3.8,9.4c0.9,2.3,1.7,4.2,2.3,5.7c0.1,0.2,0.2,0.5,0.4,0.7
		c0.2,0.2,0.4,0.4,0.7,0.6c0.2,0.1,0.5,0.2,0.8,0.3c0.3,0.1,0.6,0.1,0.8,0.1V23.7z M189.2,16.7l-2.5-6.3l-2.5,6.3H189.2z"/>
	<path class="st0" d="M230.9,23.7h-9.6c-0.3-0.3-0.6-0.7-1-1.1c-0.4-0.5-0.8-0.9-1.1-1.3c-1.2,1.1-2.3,1.8-3.4,2.3
		c-1.1,0.5-2.4,0.7-3.7,0.7c-2,0-3.7-0.5-5-1.6c-1.3-1.1-1.9-2.5-1.9-4.3c0-0.9,0.1-1.6,0.4-2.3c0.2-0.6,0.6-1.3,1.1-1.9
		c0.5-0.6,1.1-1.2,1.9-1.6c0.7-0.5,1.6-0.9,2.5-1.4c-1-1.2-1.7-2.3-2-3.2c-0.4-0.9-0.6-1.8-0.6-2.7c0-1.6,0.7-2.9,2-3.9
		c1.3-1,2.9-1.5,4.7-1.5c1.7,0,3.1,0.4,4.1,1.2c1.1,0.8,1.6,1.9,1.6,3.2c0,1.2-0.3,2.2-0.9,3.1c-0.6,0.9-1.7,1.8-3.1,2.7
		c1.2,1.5,2.1,2.7,2.7,3.4c0.6,0.8,1.5,1.8,2.6,3c0.7-1,1.2-1.9,1.5-2.8c0.3-0.8,0.5-1.6,0.5-2.1c0-0.3-0.2-0.6-0.7-0.8
		c-0.5-0.2-1.2-0.4-2-0.6V9.1h9.1v1.2c-1,0.1-1.7,0.2-2.2,0.4c-0.5,0.2-0.9,0.5-1.4,0.9c-0.2,0.2-0.4,0.5-0.7,1
		c-0.3,0.5-0.6,1-0.8,1.4c-0.3,0.6-0.7,1.1-1,1.7c-0.4,0.6-0.8,1.2-1.3,1.9c1,1.2,1.8,2,2.5,2.6c0.6,0.6,1.2,1,1.6,1.2
		c0.5,0.3,1.1,0.4,1.8,0.6c0.7,0.1,1.4,0.2,2.1,0.3V23.7z M218.4,20.3c-0.9-1.1-2-2.4-3.2-3.8c-1.2-1.5-2.3-2.8-3.4-4.2
		c-0.6,0.6-1,1.2-1.2,2c-0.3,0.8-0.4,1.5-0.4,2.3c0,1.4,0.5,2.6,1.4,3.5c0.9,0.9,2.1,1.4,3.5,1.4c0.7,0,1.2-0.1,1.7-0.3
		C217.4,21,217.9,20.7,218.4,20.3z M218.3,4.7c0-1-0.2-1.7-0.7-2.3c-0.5-0.5-1.1-0.8-1.8-0.8c-0.7,0-1.3,0.2-1.7,0.7
		c-0.4,0.4-0.7,1-0.7,1.8c0,0.6,0.2,1.3,0.6,2.1c0.4,0.8,1,1.8,1.9,2.9c0.8-0.6,1.4-1.2,1.8-2C218.1,6.3,218.3,5.5,218.3,4.7z"/>
	<path class="st0" d="M256.8,14.1c0.6,0.4,1.1,1,1.5,1.6c0.4,0.7,0.6,1.4,0.6,2.3c0,1.1-0.2,2-0.7,2.7c-0.4,0.7-1.1,1.3-1.9,1.7
		c-0.9,0.5-1.9,0.8-3.1,1c-1.2,0.2-2.5,0.3-4.1,0.3h-10.9v-1.2c0.3,0,0.7-0.1,1.2-0.1c0.5-0.1,0.8-0.1,1-0.2
		c0.4-0.1,0.6-0.3,0.7-0.6c0.1-0.2,0.2-0.6,0.2-0.9V5.9c0-0.4-0.1-0.7-0.2-0.9s-0.4-0.4-0.8-0.6c-0.3-0.1-0.7-0.2-1.1-0.3
		c-0.4-0.1-0.8-0.2-1.1-0.2V2.7h11.4c2.9,0,4.9,0.4,6.2,1.2c1.3,0.8,1.9,2,1.9,3.5c0,0.7-0.1,1.3-0.4,1.9c-0.3,0.5-0.7,1-1.2,1.4
		c-0.5,0.4-1.1,0.7-1.7,0.9c-0.7,0.3-1.4,0.5-2.2,0.7v0.3c0.8,0.1,1.6,0.2,2.4,0.5S256.2,13.7,256.8,14.1z M252,7.8
		c0-1.2-0.3-2.1-1-2.7s-1.6-1-3-1c-0.2,0-0.4,0-0.7,0c-0.3,0-0.6,0-0.8,0v7.8h0.8c1.6,0,2.8-0.4,3.5-1.1C251.6,10.1,252,9.1,252,7.8
		z M253,17.9c0-1.5-0.4-2.6-1.3-3.4c-0.9-0.8-2.1-1.2-3.7-1.2c-0.2,0-0.4,0-0.7,0c-0.3,0-0.5,0-0.7,0v7.7c0.1,0.4,0.4,0.7,0.8,0.9
		s1,0.4,1.7,0.4c1.2,0,2.1-0.4,2.9-1.2C252.7,20.4,253,19.3,253,17.9z"/>
	<path class="st0" d="M277.2,8.2c0.9,0.8,1.5,1.7,2.1,2.9c0.5,1.1,0.8,2.4,0.8,3.8c0,1.3-0.2,2.5-0.6,3.6c-0.4,1.2-1,2.1-1.8,3
		c-0.8,0.9-1.8,1.5-3,2c-1.1,0.5-2.5,0.7-4.1,0.7c-1.3,0-2.5-0.2-3.6-0.6c-1.1-0.4-2.1-1-3-1.8c-0.9-0.8-1.5-1.7-2-2.8
		c-0.5-1.1-0.8-2.4-0.8-3.7c0-1.4,0.2-2.7,0.7-3.9c0.5-1.2,1.2-2.2,2-3c0.8-0.8,1.9-1.4,3-1.9c1.2-0.4,2.4-0.7,3.7-0.7
		c1.3,0,2.5,0.2,3.7,0.6C275.3,6.8,276.3,7.4,277.2,8.2z M274,20.7c0.4-0.7,0.6-1.6,0.8-2.5c0.2-0.9,0.2-2,0.2-3.2c0-1-0.1-2-0.2-3
		c-0.1-1-0.4-1.8-0.7-2.6c-0.4-0.7-0.8-1.4-1.4-1.8c-0.6-0.5-1.3-0.7-2.2-0.7c-1.5,0-2.6,0.7-3.4,2.1c-0.8,1.4-1.2,3.4-1.2,6
		c0,1.1,0.1,2.1,0.3,3.1c0.2,1,0.4,1.8,0.8,2.5c0.4,0.7,0.8,1.3,1.4,1.7c0.6,0.4,1.3,0.6,2.1,0.6c0.8,0,1.5-0.2,2.1-0.6
		C273.2,22,273.6,21.4,274,20.7z"/>
	<path class="st0" d="M300.2,7.2c-0.3,0-0.6,0.1-0.8,0.2c-0.2,0.1-0.5,0.2-0.7,0.3c-0.4,0.2-0.7,0.5-0.9,0.8c-0.3,0.3-0.5,0.7-0.8,1
		c-0.5,0.8-1.1,1.6-1.7,2.5c-0.6,0.9-1.2,1.9-1.9,3c-0.5,0.7-0.7,1.2-0.8,1.6c-0.1,0.4-0.2,1-0.2,1.9v2.5c0,0.3,0.1,0.6,0.2,0.8
		c0.1,0.2,0.3,0.4,0.6,0.5c0.1,0.1,0.4,0.1,0.9,0.2c0.5,0.1,0.8,0.2,1,0.2v1h-9.8v-1c0.2,0,0.6,0,1-0.1c0.4,0,0.7-0.1,0.9-0.2
		c0.3-0.1,0.5-0.3,0.6-0.5c0.1-0.2,0.2-0.5,0.2-0.8v-3.1c0-0.3,0-0.5,0-0.7c0-0.2,0-0.4-0.1-0.5c-0.1-0.2-0.2-0.4-0.3-0.6
		c-0.1-0.2-0.3-0.6-0.5-0.9c-0.6-1.1-1.2-2.2-1.8-3.2c-0.6-1-1.2-1.9-1.7-2.8c-0.3-0.5-0.6-0.8-0.8-1.1c-0.3-0.3-0.6-0.5-0.9-0.7
		c-0.2-0.1-0.5-0.2-0.8-0.3c-0.3-0.1-0.6-0.1-0.9-0.1v-1h10v1c-0.9,0-1.5,0.1-1.9,0.2c-0.3,0.1-0.5,0.2-0.5,0.4
		c0,0.1,0.1,0.3,0.2,0.5c0.1,0.3,0.3,0.7,0.6,1.3c0.3,0.5,0.7,1.3,1.2,2.2c0.5,0.9,1.2,2,1.9,3.3c1.6-2.5,2.6-4.2,3.2-5.2
		c0.6-1,0.9-1.6,0.9-1.8c0-0.3-0.2-0.5-0.5-0.6c-0.3-0.1-0.9-0.2-1.7-0.3v-1h6.5V7.2z"/>
	<path class="st0" d="M316.6,18.1l-0.3,5.6h-16.1v-1c0.3,0,0.6-0.1,1-0.1c0.4-0.1,0.6-0.1,0.8-0.2c0.3-0.1,0.5-0.3,0.6-0.5
		c0.1-0.2,0.2-0.5,0.2-0.8V8.9c0-0.3,0-0.5-0.1-0.7c-0.1-0.2-0.3-0.4-0.7-0.5c-0.3-0.1-0.6-0.2-0.9-0.3c-0.4-0.1-0.6-0.1-0.9-0.2v-1
		h9.6v1c-0.3,0-0.6,0.1-0.9,0.1c-0.4,0-0.7,0.1-0.9,0.2c-0.3,0.1-0.5,0.3-0.6,0.5c-0.1,0.2-0.2,0.5-0.2,0.8v11.5c0,0.5,0,1,0.1,1.3
		c0.1,0.3,0.2,0.5,0.4,0.7c0.2,0.2,0.5,0.3,0.9,0.3c0.4,0,0.9,0.1,1.6,0.1c0.7,0,1.3,0,1.9-0.1c0.6-0.1,1.1-0.2,1.3-0.5
		c0.4-0.4,0.8-1,1.3-1.8c0.4-0.8,0.8-1.5,1.1-2.1H316.6z"/>
	<path class="st0" d="M333,10.7h-0.9c-0.2-0.7-0.6-1.3-1.2-2c-0.6-0.7-1.2-1.1-1.7-1.2c-0.2-0.1-0.6-0.1-1-0.1c-0.4,0-0.8,0-1.1,0
		h-2.5v6.7h1.8c0.5,0,0.9-0.1,1.2-0.2c0.4-0.1,0.7-0.3,1-0.6c0.2-0.2,0.4-0.5,0.6-1c0.2-0.5,0.3-0.9,0.4-1.2h0.9v7.3h-0.9
		c0-0.3-0.2-0.8-0.4-1.3c-0.2-0.5-0.4-0.9-0.6-1.1c-0.3-0.3-0.6-0.5-1-0.6c-0.4-0.1-0.8-0.2-1.3-0.2h-1.8v5c0,0.5,0,0.9,0.1,1.3
		c0.1,0.3,0.2,0.5,0.4,0.7c0.2,0.2,0.5,0.3,0.8,0.3c0.4,0,0.8,0.1,1.5,0.1c0.3,0,0.6,0,1,0c0.4,0,0.8,0,1.1-0.1c0.3,0,0.7-0.1,1-0.2
		c0.3-0.1,0.5-0.2,0.7-0.4c0.4-0.4,0.8-1,1.3-1.8c0.5-0.8,0.8-1.4,1-1.9h0.9l-0.3,5.4h-16.4v-1c0.2,0,0.5,0,0.9-0.1
		c0.4,0,0.7-0.1,0.8-0.2c0.3-0.1,0.5-0.3,0.6-0.5c0.1-0.2,0.2-0.5,0.2-0.8V8.9c0-0.3,0-0.5-0.1-0.7c-0.1-0.2-0.3-0.4-0.7-0.5
		c-0.2-0.1-0.5-0.2-0.9-0.3c-0.4-0.1-0.7-0.1-0.9-0.2v-1H333V10.7z"/>
	<path class="st0" d="M358.6,18.1l-0.3,5.6h-16.1v-1c0.3,0,0.6-0.1,1-0.1c0.4-0.1,0.6-0.1,0.8-0.2c0.3-0.1,0.5-0.3,0.6-0.5
		c0.1-0.2,0.2-0.5,0.2-0.8V8.9c0-0.3,0-0.5-0.1-0.7c-0.1-0.2-0.3-0.4-0.7-0.5c-0.3-0.1-0.6-0.2-0.9-0.3c-0.4-0.1-0.6-0.1-0.9-0.2v-1
		h9.6v1c-0.3,0-0.6,0.1-0.9,0.1c-0.4,0-0.7,0.1-0.9,0.2c-0.3,0.1-0.5,0.3-0.6,0.5c-0.1,0.2-0.2,0.5-0.2,0.8v11.5c0,0.5,0,1,0.1,1.3
		c0.1,0.3,0.2,0.5,0.4,0.7c0.2,0.2,0.5,0.3,0.9,0.3c0.4,0,0.9,0.1,1.6,0.1c0.7,0,1.3,0,1.9-0.1c0.6-0.1,1.1-0.2,1.3-0.5
		c0.4-0.4,0.8-1,1.3-1.8c0.4-0.8,0.8-1.5,1.1-2.1H358.6z"/>
	<path class="st0" d="M375.9,18.1l-0.3,5.6h-16.1v-1c0.3,0,0.6-0.1,1-0.1c0.4-0.1,0.6-0.1,0.8-0.2c0.3-0.1,0.5-0.3,0.6-0.5
		c0.1-0.2,0.2-0.5,0.2-0.8V8.9c0-0.3,0-0.5-0.1-0.7c-0.1-0.2-0.3-0.4-0.7-0.5c-0.3-0.1-0.6-0.2-0.9-0.3c-0.4-0.1-0.6-0.1-0.9-0.2v-1
		h9.6v1c-0.3,0-0.6,0.1-0.9,0.1c-0.4,0-0.7,0.1-0.9,0.2c-0.3,0.1-0.5,0.3-0.6,0.5c-0.1,0.2-0.2,0.5-0.2,0.8v11.5c0,0.5,0,1,0.1,1.3
		c0.1,0.3,0.2,0.5,0.4,0.7c0.2,0.2,0.5,0.3,0.9,0.3c0.4,0,0.9,0.1,1.6,0.1c0.7,0,1.3,0,1.9-0.1c0.6-0.1,1.1-0.2,1.3-0.5
		c0.4-0.4,0.8-1,1.3-1.8c0.4-0.8,0.8-1.5,1.1-2.1H375.9z"/>
	<path class="st0" d="M393.1,10.6c0,1-0.2,1.8-0.6,2.5c-0.4,0.7-1,1.3-1.7,1.7c-0.7,0.5-1.6,0.8-2.5,1c-0.9,0.2-2,0.3-3.2,0.3h-1.4
		v4.9c0,0.3,0.1,0.6,0.2,0.8c0.1,0.2,0.3,0.4,0.6,0.5c0.2,0.1,0.4,0.1,0.8,0.2s0.7,0.1,0.9,0.1v1h-9.5v-1c0.2,0,0.6-0.1,0.9-0.1
		c0.4,0,0.7-0.1,0.8-0.2c0.3-0.1,0.5-0.3,0.6-0.5c0.1-0.2,0.2-0.5,0.2-0.8V8.9c0-0.3,0-0.5-0.1-0.7c-0.1-0.2-0.3-0.4-0.6-0.5
		c-0.2-0.1-0.5-0.2-0.9-0.3c-0.4-0.1-0.7-0.1-0.9-0.2v-1h9.7c2.3,0,3.9,0.4,5.1,1.1C392.6,8,393.1,9.1,393.1,10.6z M388.3,11.2
		c0-1.3-0.3-2.3-0.8-2.9c-0.5-0.6-1.5-1-2.8-1h-1V15h0.5c1.3,0,2.4-0.3,3.1-0.9C388,13.5,388.3,12.5,388.3,11.2z"/>
</g>
</svg>
