<svg id="reason1" data-name="reason1" xmlns="http://www.w3.org/2000/svg" viewBox="0 0 95.9 48.2">
					
			<path d="M78.4,39l17.5-3.3-.2-1.3L58,41.5l.9-1.4a18.18,18.18,0,0,0,2.7-9.2,13.58,13.58,0,0,0-.3-2.9l-.2-.9H74.3V25.8H60.6l-.2-.5a14.22,14.22,0,0,0-2.8-4.1,13.62,13.62,0,0,0-8.4-3.8l-.7-.1V0H47.2V17.3l-.7.1a14.19,14.19,0,0,0-8.4,3.8,13,13,0,0,0-2.8,4.1l-.2.5H21.7v1.3H34.9l-.3.9a13.58,13.58,0,0,0-.3,2.9A18.18,18.18,0,0,0,37,40.1l.9,1.4L.2,34.4,0,35.7,17.5,39l-1,1a4.6,4.6,0,0,0-1.3,3.3,4.79,4.79,0,0,0,1.6,3.5,5.86,5.86,0,0,0,7.6,0A4.79,4.79,0,0,0,26,43.3a4.53,4.53,0,0,0-.3-1.6l-.4-1.2,14.2,2.7.2.2A11.92,11.92,0,0,0,48,47.1a11.74,11.74,0,0,0,8.3-3.7l.2-.2,14.2-2.7-.4,1.2a4.15,4.15,0,0,0-.3,1.6,4.79,4.79,0,0,0,1.6,3.5,5.86,5.86,0,0,0,7.6,0,4.79,4.79,0,0,0,1.6-3.5A5.07,5.07,0,0,0,79.5,40ZM23.5,45.8a4.37,4.37,0,0,1-5.8,0,3.32,3.32,0,0,1-1.2-2.5,3.17,3.17,0,0,1,1.2-2.5,4.53,4.53,0,0,1,5.8,0h0a3.32,3.32,0,0,1,1.2,2.5A3.7,3.7,0,0,1,23.5,45.8Zm32.9-4.5C54,44.1,51,45.7,48,45.7a11.18,11.18,0,0,1-8.4-4.4,16.63,16.63,0,0,1-3.8-10.4,11.83,11.83,0,0,1,3.5-8.7,12.3,12.3,0,0,1,21.1,8.7A18.12,18.12,0,0,1,56.4,41.3Zm21.8,4.5a4.37,4.37,0,0,1-5.8,0,3.2,3.2,0,0,1,0-5,4.53,4.53,0,0,1,5.8,0h0a3.2,3.2,0,0,1,0,5Z"/>
			<path d="M41,26v5.8l6.9-.5,7,.5V26L48,23.9Zm12.5,4.4L47.9,30l-5.5.4V27L48,25.3,53.6,27v3.4Z"/>
					
<!--
					<defs>
						<linearGradient id="Gradient1" x2="0%" y2="100%">
						
							<stop offset="0%" stop-color="#193cc9" />
							<stop offset="95%" stop-color="#b51ac9" />
      
						</linearGradient>
					</defs> 
-->
				
				</svg>				