<?xml version="1.0" encoding="utf-8"?>
<!-- Generator: Adobe Illustrator 21.0.0, SVG Export Plug-In . SVG Version: 6.00 Build 0)  -->
<svg version="1.1" id="reason6" xmlns="http://www.w3.org/2000/svg" xmlns:xlink="http://www.w3.org/1999/xlink" x="0px" y="0px"
	 viewBox="0 0 79 66.3" style="enable-background:new 0 0 79 66.3;" xml:space="preserve">
<path d="M74.4,31.4l3.5-13.5h-6.1l-6.6,10.3L64.6,28c-2.1-0.4-4.2-0.4-6.3-0.4l-0.8,0H41L48,0h-5.7l-9.6,16.4h-5.4v1.3H32l-5.7,9.8
	H11c-3,0-5.6,0.5-7.6,1.4C1.2,30,0,31.5,0,33.2s1.2,3.1,3.4,4.1c2,0.9,4.6,1.4,7.6,1.4h15.2l5.7,9.8h-4.6v1.3h5.4l9.6,16.4H48
	l-7-27.6l17.4,0c2.1,0,4.2-0.1,6.3-0.4l0.5-0.1l6.6,10.3h6.1l-3.5-13.5l4.6-1.8L74.4,31.4z M72.5,19.2h3.7l-3,11.7l-4.6-1.8
	c-0.4-0.1-0.7-0.3-1.1-0.4l-0.9-0.3L72.5,19.2z M43.1,1.3h3.2l-6.7,26.2H27.8L43.1,1.3z M46.3,65h-3.2L27.8,38.7h11.8L46.3,65z
	 M76.2,47.1h-3.7l-6-9.2l0.9-0.3c0.4-0.1,0.7-0.2,1.1-0.4l4.7-1.8L76.2,47.1z M68,36c-2.9,1.2-6.7,1.4-10.5,1.4H11
	c-2.8,0-5.3-0.5-7.1-1.3c-1.7-0.8-2.6-1.9-2.6-2.9S2.3,31,4,30.2c1.8-0.9,4.2-1.3,7.1-1.3h46.5c3.4,0,7.1,0.1,10.5,1.4l7.3,2.8
	L68,36z"/>
</svg>
