<svg id="reason3" data-name="Layer 1" xmlns="http://www.w3.org/2000/svg" viewBox="0 0 80.6 40.5"><title>sp_icon3</title><path d="M62.3,10.4H42.9l-3-7.8h3V1.3H25.1V2.6h1.7v7.8H14l-3.8,5.4v3.9h-5V7.1H3.9V19.7H0V21H3.9V33.6H5.2V21h4.9v4.1l9.1,4.7,7.4-.8v4.1l-.5.2a3.66,3.66,0,0,0-2.5,3.5,3.76,3.76,0,0,0,3.7,3.7A3.69,3.69,0,0,0,31,36.8v-.3l8.9-8.8,5.6-.6,35.1-7.7V0H69.4Zm-20.8,0H32.1L39,3.7ZM28.1,2.6H38.2l-7.9,7.8H28.1Zm-.7,36.5a2.4,2.4,0,0,1,0-4.8,2.4,2.4,0,0,1,0,4.8ZM30.7,35l-.5-.6a3.55,3.55,0,0,0-1.6-1.1l-.5-.2V28.9l9.9-1ZM79.4,1.3v17L45.5,25.8l-26,2.7-8.1-4.1V16.2l3.2-4.4H63L70.1,1.4h9.3Z"/></svg>