<svg id="reason2" data-name="Layer 1" xmlns="http://www.w3.org/2000/svg" viewBox="0 0 61.5 70.8"><title>sp_icon2</title><path d="M61.5,31.3v-.8A30,30,0,0,0,52.7,9.2,30.6,30.6,0,0,0,31.4,0H30A30.88,30.88,0,0,0,8.8,9.1,30,30,0,0,0,0,30.5v.9l.1.2L30.7,70.8Zm-1.4-.4-.2.3L31.6,67.4,46.3,31.1a6.79,6.79,0,0,1,11.6-4.8,7.17,7.17,0,0,1,2.2,4.3ZM36,1.8a29.3,29.3,0,0,1,15.8,8.3,28.86,28.86,0,0,1,7.7,14.1l.5,2.1-1.7-1.4A8.38,8.38,0,0,0,53,23a8.56,8.56,0,0,0-5.5,2.1l-1.1,1-.2-1.5a33.22,33.22,0,0,0-11-21.5L33.3,1.3Zm-5.7-.3.4-.3.4.3A32.56,32.56,0,0,1,41.2,12.9a31.9,31.9,0,0,1,3.6,11.7l.2,2-1.5-1.4A8.15,8.15,0,0,0,38,23a7.63,7.63,0,0,0-5.7,2.4,12.67,12.67,0,0,0-1.1,1.3l-.6,1-.6-1a6.89,6.89,0,0,0-1.1-1.3A8.2,8.2,0,0,0,23.2,23a8,8,0,0,0-5.5,2.2l-1.5,1.4.2-2A34.59,34.59,0,0,1,20,12.9,34.25,34.25,0,0,1,30.3,1.5ZM2,24.1a29.37,29.37,0,0,1,7.7-14A30,30,0,0,1,25.5,1.8l2.6-.5L26.2,3.1A35.29,35.29,0,0,0,19,12.2a32.5,32.5,0,0,0-3.8,12.4L15,26.1l-1.1-1A7.88,7.88,0,0,0,8.4,23a8.32,8.32,0,0,0-5.2,1.9L1.5,26.3Zm-.6,6.8.1-.3a8.45,8.45,0,0,1,2.2-4.3,6.8,6.8,0,0,1,11.6,4.8v.1L30,67.4Zm15.2.1v-.2a6.92,6.92,0,0,1,2-4.5,6.76,6.76,0,0,1,9.6,0,6.28,6.28,0,0,1,1.9,4h1.4a6.82,6.82,0,0,1,1.9-4,6.76,6.76,0,0,1,9.6,0,6.92,6.92,0,0,1,2,4.5V31L30.8,66Z"/>


</svg>